<?xml version="1.0" standalone="no"?>
<!DOCTYPE svg PUBLIC "-//W3C//DTD SVG 20010904//EN"
 "http://www.w3.org/TR/2001/REC-SVG-20010904/DTD/svg10.dtd">
<svg version="1.0" xmlns="http://www.w3.org/2000/svg"
 width="3000.000000pt" height="3060.000000pt" viewBox="0 0 3000.000000 3060.000000"
 preserveAspectRatio="xMidYMid meet">

<g transform="translate(0.000000,3060.000000) scale(0.100000,-0.100000)"
fill="#000000" stroke="none">
<path d="M8722 26417 l-6412 -3701 2 -7408 3 -7409 6410 -3700 6410 -3701 40
21 c22 11 2909 1675 6415 3699 l6375 3678 3 7410 2 7410 -6411 3700 c-3526
2034 -6414 3700 -6418 3701 -3 0 -2892 -1664 -6419 -3700z m10093 -4746 l3670
-2119 3 -4244 2 -4245 -3672 -2044 -3673 -2044 -5 4478 -5 4478 -3545 1874
c-1950 1032 -3545 1880 -3545 1885 0 8 7080 4100 7095 4100 3 0 1657 -953
3675 -2119z"/>
</g>
</svg>
